<svg width="36" height="36" viewBox="0 0 36 36" fill="none" xmlns="http://www.w3.org/2000/svg">
<path d="M18 9.69231C16.3569 9.69231 14.7507 10.1795 13.3845 11.0924C12.0183 12.0053 10.9535 13.3028 10.3247 14.8208C9.6959 16.3388 9.53138 18.0092 9.85194 19.6208C10.1725 21.2323 10.9637 22.7126 12.1256 23.8744C13.2874 25.0363 14.7677 25.8275 16.3792 26.1481C17.9908 26.4686 19.6612 26.3041 21.1792 25.6753C22.6972 25.0465 23.9947 23.9817 24.9076 22.6155C25.8205 21.2493 26.3077 19.6431 26.3077 18C26.3054 15.7974 25.4294 13.6856 23.8719 12.1281C22.3144 10.5706 20.2026 9.6946 18 9.69231ZM18 23.5385C16.9046 23.5385 15.8338 23.2136 14.923 22.6051C14.0122 21.9965 13.3023 21.1315 12.8831 20.1195C12.4639 19.1075 12.3543 17.9939 12.568 16.9195C12.7817 15.8451 13.3091 14.8583 14.0837 14.0837C14.8583 13.3091 15.8451 12.7817 16.9195 12.568C17.9939 12.3543 19.1075 12.4639 20.1195 12.8831C21.1315 13.3023 21.9965 14.0122 22.6051 14.923C23.2136 15.8338 23.5385 16.9046 23.5385 18C23.5385 19.4689 22.9549 20.8776 21.9163 21.9163C20.8776 22.9549 19.4689 23.5385 18 23.5385ZM26.3077 0H9.69231C7.12259 0.00274885 4.65891 1.02478 2.84185 2.84185C1.02478 4.65891 0.00274885 7.12259 0 9.69231V26.3077C0.00274885 28.8774 1.02478 31.3411 2.84185 33.1582C4.65891 34.9752 7.12259 35.9973 9.69231 36H26.3077C28.8774 35.9973 31.3411 34.9752 33.1582 33.1582C34.9752 31.3411 35.9973 28.8774 36 26.3077V9.69231C35.9973 7.12259 34.9752 4.65891 33.1582 2.84185C31.3411 1.02478 28.8774 0.00274885 26.3077 0ZM33.2308 26.3077C33.2308 28.1438 32.5014 29.9047 31.203 31.203C29.9047 32.5014 28.1438 33.2308 26.3077 33.2308H9.69231C7.85619 33.2308 6.09528 32.5014 4.79695 31.203C3.49862 29.9047 2.76923 28.1438 2.76923 26.3077V9.69231C2.76923 7.85619 3.49862 6.09528 4.79695 4.79695C6.09528 3.49862 7.85619 2.76923 9.69231 2.76923H26.3077C28.1438 2.76923 29.9047 3.49862 31.203 4.79695C32.5014 6.09528 33.2308 7.85619 33.2308 9.69231V26.3077ZM29.0769 9C29.0769 9.41078 28.9551 9.81233 28.7269 10.1539C28.4987 10.4954 28.1743 10.7616 27.7948 10.9188C27.4153 11.076 26.9977 11.1172 26.5948 11.037C26.1919 10.9569 25.8219 10.7591 25.5314 10.4686C25.2409 10.1781 25.0431 9.80807 24.963 9.40519C24.8828 9.00231 24.924 8.5847 25.0812 8.2052C25.2384 7.82569 25.5046 7.50132 25.8461 7.2731C26.1877 7.04489 26.5892 6.92308 27 6.92308C27.5508 6.92308 28.0791 7.14189 28.4686 7.53139C28.8581 7.92089 29.0769 8.44917 29.0769 9Z" fill="#163E58"/>
</svg>
