<svg width="36" height="36" viewBox="0 0 36 36" fill="none" xmlns="http://www.w3.org/2000/svg">
<path d="M18 35.9999C8.0835 36.0269 0.0255 28.0064 0 18.0915V18C0 8.02498 8.0265 0 18 0C27.9735 0 36 8.02498 36 18C36 27.9734 27.9735 35.9999 18 35.9999ZM18 28.8734L19.35 27.5249L18 22.35L16.65 27.5249L18 28.8734ZM16.275 28.7984L15.6 31.3499L17.175 29.7719L16.275 28.7984ZM19.725 28.7984L18.825 29.6999L20.4 31.2764L19.725 28.7984ZM21 33.4514L18 30.4499L15 33.4514C15.975 33.6014 16.95 33.7499 18 33.7499C19.05 33.7499 20.025 33.6749 21 33.4514ZM18 2.25C9.3015 2.25 2.25 9.30148 2.25 18C2.24394 21.2689 3.26033 24.4579 5.15685 27.1205C7.05338 29.783 9.73508 31.7858 12.8265 32.8484L16.2015 20.3235C15.8239 20.0486 15.5178 19.6873 15.3087 19.2697C15.0997 18.8521 14.9938 18.3904 15 17.9235C15 16.272 16.35 14.922 18 14.922C19.65 14.922 21 16.272 21 17.9235C21 18.897 20.5485 19.7235 19.7985 20.3235L23.1735 32.8484C26.2652 31.7862 28.9471 29.7835 30.8437 27.1209C32.7403 24.4582 33.7565 21.269 33.75 18C33.75 9.30148 26.6985 2.25 18 2.25ZM28.275 25.8C28.0905 26.0305 27.8251 26.1821 27.5328 26.2239C27.2405 26.2657 26.9432 26.1946 26.7015 26.025C26.5819 25.9461 26.4802 25.843 26.4031 25.7223C26.326 25.6016 26.2752 25.466 26.254 25.3244C26.2328 25.1828 26.2416 25.0382 26.28 24.9002C26.3183 24.7622 26.3853 24.6339 26.4765 24.5235C26.4765 24.5235 28.5015 21.825 28.5015 17.9985C28.5015 14.172 26.4765 11.4735 26.4765 11.4735C26.3853 11.363 26.3185 11.2345 26.2802 11.0965C26.242 10.9584 26.2333 10.8138 26.2547 10.6722C26.276 10.5305 26.327 10.395 26.4043 10.2743C26.4815 10.1537 26.5833 10.0507 26.703 9.97198C26.9447 9.80235 27.242 9.73119 27.5343 9.77299C27.8266 9.81479 28.092 9.9664 28.2765 10.197C28.4265 10.3485 30.7515 13.422 30.7515 17.997C30.7515 22.572 28.4235 25.65 28.275 25.8ZM22.7985 22.875C22.3485 22.425 22.425 21.6 22.875 21.15C22.875 21.15 24 19.9515 24 18C24 16.0485 22.875 14.9235 22.875 14.85C22.425 14.3985 22.425 13.6485 22.7985 13.125C22.89 13.0059 23.0063 12.9082 23.1394 12.8385C23.2724 12.7689 23.419 12.7291 23.569 12.7218C23.719 12.7145 23.8688 12.74 24.008 12.7964C24.1472 12.8528 24.2724 12.9388 24.375 13.0485C24.4515 13.125 26.25 15 26.25 18C26.25 21 24.4515 22.875 24.375 22.9515C23.9235 23.4 23.25 23.3265 22.7985 22.875ZM13.2015 22.875C12.75 23.3265 12.0765 23.4 11.625 22.9515C11.5485 22.7985 9.75 21 9.75 18C9.75 15 11.5485 13.2015 11.625 13.0485C12.0765 12.6 12.8265 12.6 13.2015 13.125C13.6515 13.575 13.575 14.4 13.125 14.85C13.125 14.9235 12 16.0485 12 18C12 19.9515 13.125 21.15 13.125 21.15C13.575 21.6 13.6515 22.3485 13.2015 22.875ZM9.2985 26.0264C9.05644 26.1958 8.75903 26.2668 8.46656 26.225C8.17409 26.1833 7.90846 26.0318 7.7235 25.8015C7.5765 25.65 5.25 22.575 5.25 18C5.25 13.425 7.5765 10.35 7.7235 10.2C7.90803 9.96899 8.17373 9.8171 8.4664 9.77529C8.75908 9.73348 9.05668 9.8049 9.2985 9.97498C9.41798 10.0537 9.51956 10.1566 9.59666 10.2771C9.67376 10.3977 9.72464 10.533 9.746 10.6745C9.76736 10.816 9.75872 10.9603 9.72065 11.0983C9.68257 11.2362 9.61591 11.3645 9.525 11.475C9.525 11.475 7.5 14.1735 7.5 18C7.5 21.8265 9.525 24.525 9.525 24.525C9.9 24.975 9.75 25.65 9.2985 26.0264Z" fill="#163E58"/>
</svg>
