<svg width="24" height="24" viewBox="0 0 24 24" fill="none" xmlns="http://www.w3.org/2000/svg">
<path d="M12 24C5.389 24.018 0.017 18.671 0 12.061V12C0 5.34999 5.351 0 12 0C18.649 0 24 5.34999 24 12C24 18.649 18.649 24 12 24ZM12 19.249L12.9 18.35L12 14.9L11.1 18.35L12 19.249ZM10.85 19.199L10.4 20.9L11.45 19.848L10.85 19.199ZM13.15 19.199L12.55 19.8L13.6 20.851L13.15 19.199ZM14 22.301L12 20.3L10 22.301C10.65 22.401 11.3 22.5 12 22.5C12.7 22.5 13.35 22.45 14 22.301ZM12 1.5C6.201 1.5 1.5 6.20099 1.5 12C1.49596 14.1793 2.17355 16.3053 3.4379 18.0803C4.70225 19.8553 6.49006 21.1905 8.551 21.899L10.801 13.549C10.5493 13.3658 10.3452 13.1248 10.2058 12.8464C10.0664 12.568 9.99586 12.2603 10 11.949C10 10.848 10.9 9.94798 12 9.94798C13.1 9.94798 14 10.848 14 11.949C14 12.598 13.699 13.149 13.199 13.549L15.449 21.899C17.5101 21.1908 19.2981 19.8557 20.5625 18.0806C21.8269 16.3055 22.5043 14.1793 22.5 12C22.5 6.20099 17.799 1.5 12 1.5ZM18.85 17.2C18.727 17.3537 18.5501 17.4548 18.3552 17.4826C18.1603 17.5105 17.9621 17.4631 17.801 17.35C17.7213 17.2974 17.6535 17.2287 17.6021 17.1482C17.5507 17.0678 17.5168 16.9774 17.5027 16.8829C17.4885 16.7885 17.4944 16.6922 17.52 16.6002C17.5455 16.5082 17.5902 16.4226 17.651 16.349C17.651 16.349 19.001 14.55 19.001 11.999C19.001 9.44798 17.651 7.64899 17.651 7.64899C17.5902 7.57532 17.5456 7.48968 17.5202 7.39764C17.4947 7.3056 17.4889 7.20922 17.5031 7.11479C17.5174 7.02036 17.5513 6.92998 17.6028 6.84955C17.6543 6.76912 17.7222 6.70044 17.802 6.64799C17.9631 6.5349 18.1613 6.48746 18.3562 6.51533C18.5511 6.54319 18.728 6.64427 18.851 6.79799C18.951 6.89899 20.501 8.94798 20.501 11.998C20.501 15.048 18.949 17.1 18.85 17.2ZM15.199 15.25C14.899 14.95 14.95 14.4 15.25 14.1C15.25 14.1 16 13.301 16 12C16 10.699 15.25 9.94898 15.25 9.89998C14.95 9.59898 14.95 9.09898 15.199 8.74998C15.26 8.6706 15.3375 8.60544 15.4262 8.55902C15.515 8.51261 15.6127 8.48605 15.7127 8.4812C15.8127 8.47635 15.9125 8.49331 16.0053 8.53092C16.0981 8.56853 16.1816 8.62588 16.25 8.69898C16.301 8.74998 17.5 9.99998 17.5 12C17.5 14 16.301 15.25 16.25 15.301C15.949 15.6 15.5 15.551 15.199 15.25ZM8.801 15.25C8.5 15.551 8.051 15.6 7.75 15.301C7.699 15.199 6.5 14 6.5 12C6.5 9.99998 7.699 8.80098 7.75 8.69898C8.051 8.39998 8.551 8.39998 8.801 8.74998C9.101 9.04998 9.05 9.59998 8.75 9.89998C8.75 9.94898 8 10.699 8 12C8 13.301 8.75 14.1 8.75 14.1C9.05 14.4 9.101 14.899 8.801 15.25ZM6.199 17.351C6.03762 17.4639 5.83935 17.5112 5.64437 17.4834C5.44939 17.4555 5.2723 17.3546 5.149 17.201C5.051 17.1 3.5 15.05 3.5 12C3.5 8.94998 5.051 6.89999 5.149 6.79999C5.27202 6.646 5.44915 6.54473 5.64427 6.51686C5.83938 6.48899 6.03778 6.5366 6.199 6.64999C6.27865 6.70245 6.34638 6.77108 6.39777 6.85143C6.44917 6.93177 6.48309 7.02203 6.49733 7.11634C6.51157 7.21065 6.50581 7.3069 6.48043 7.39883C6.45505 7.49077 6.41061 7.57634 6.35 7.64999C6.35 7.64999 5 9.44898 5 12C5 14.551 6.35 16.35 6.35 16.35C6.6 16.65 6.5 17.1 6.199 17.351Z" fill="white"/>
</svg>
