<svg width="24" height="24" viewBox="0 0 24 24" fill="none" xmlns="http://www.w3.org/2000/svg">
<path d="M12 0C9.62663 0 7.30655 0.703788 5.33316 2.02236C3.35977 3.34094 1.8217 5.21508 0.913451 7.4078C0.00519943 9.60051 -0.232441 12.0133 0.230582 14.3411C0.693605 16.6689 1.83649 18.807 3.51472 20.4853C5.19295 22.1635 7.33115 23.3064 9.65892 23.7694C11.9867 24.2324 14.3995 23.9948 16.5922 23.0865C18.7849 22.1783 20.6591 20.6402 21.9776 18.6668C23.2962 16.6934 24 14.3734 24 12C23.9966 8.81843 22.7313 5.76814 20.4816 3.51843C18.2319 1.26872 15.1816 0.00335979 12 0ZM12 22.1538C9.99176 22.1538 8.02862 21.5583 6.35883 20.4426C4.68904 19.3269 3.38759 17.7411 2.61907 15.8857C1.85055 14.0303 1.64947 11.9887 2.04126 10.0191C2.43305 8.04943 3.40011 6.24019 4.82015 4.82015C6.24019 3.4001 8.04943 2.43304 10.0191 2.04126C11.9887 1.64947 14.0303 1.85055 15.8857 2.61907C17.7411 3.38759 19.3269 4.68903 20.4426 6.35882C21.5583 8.02861 22.1538 9.99176 22.1538 12C22.1508 14.692 21.08 17.2729 19.1765 19.1765C17.2729 21.08 14.692 22.1508 12 22.1538ZM15.585 16.8162C15.4705 17.0325 15.2748 17.1945 15.0409 17.2665C14.807 17.3386 14.5541 17.3148 14.3377 17.2004C13.6191 16.8141 12.8159 16.6119 12 16.6119C11.1841 16.6119 10.3809 16.8141 9.66231 17.2004C9.44654 17.3089 9.19686 17.3285 8.96681 17.255C8.73676 17.1815 8.54467 17.0208 8.43174 16.8073C8.31882 16.5938 8.29405 16.3446 8.36275 16.1131C8.43145 15.8815 8.58815 15.6862 8.79923 15.5688C9.78549 15.0472 10.8843 14.7745 12 14.7745C13.1157 14.7745 14.2145 15.0472 15.2008 15.5688C15.4171 15.6833 15.5791 15.879 15.6511 16.1129C15.7232 16.3468 15.6994 16.5998 15.585 16.8162ZM19.2773 10.3546C19.2202 10.4616 19.1426 10.5563 19.0489 10.6333C18.9552 10.7104 18.8472 10.7681 18.7312 10.8034C18.6151 10.8386 18.4933 10.8507 18.3726 10.8388C18.2518 10.8269 18.1347 10.7914 18.0277 10.7342C16.1741 9.7414 14.1039 9.2219 12.0012 9.2219C9.89841 9.2219 7.82822 9.7414 5.97462 10.7342C5.75857 10.8496 5.50554 10.8744 5.27119 10.8032C5.03684 10.732 4.84037 10.5707 4.725 10.3546C4.60963 10.1386 4.58482 9.88553 4.65601 9.65119C4.7272 9.41684 4.88857 9.22037 5.10462 9.105C7.22607 7.96964 9.595 7.3756 12.0012 7.3756C14.4073 7.3756 16.7762 7.96964 18.8977 9.105C19.0049 9.16218 19.0998 9.23997 19.1769 9.3339C19.254 9.42783 19.3117 9.53606 19.3469 9.65237C19.3821 9.76868 19.3939 9.89079 19.3818 10.0117C19.3696 10.1326 19.3337 10.2499 19.2762 10.3569L19.2773 10.3546ZM17.4312 13.5854C17.3161 13.8014 17.1199 13.9629 16.8858 14.0343C16.6516 14.1057 16.3988 14.0812 16.1827 13.9662C14.8958 13.2797 13.4597 12.9206 12.0012 12.9206C10.5426 12.9206 9.10651 13.2797 7.81962 13.9662C7.60404 14.0763 7.35383 14.0973 7.1229 14.0247C6.89196 13.9521 6.69879 13.7917 6.585 13.578C6.47121 13.3643 6.4459 13.1145 6.51454 12.8824C6.58317 12.6502 6.74025 12.4544 6.95193 12.3369C8.50593 11.5082 10.24 11.0748 12.0012 11.0748C13.7623 11.0748 15.4964 11.5082 17.0504 12.3369C17.1576 12.394 17.2524 12.4717 17.3295 12.5655C17.4066 12.6593 17.4644 12.7674 17.4997 12.8835C17.535 12.9997 17.547 13.1217 17.535 13.2426C17.523 13.3634 17.4874 13.4807 17.43 13.5877L17.4312 13.5854Z" fill="white"/>
</svg>
