<svg width="34" height="24" viewBox="0 0 34 24" fill="none" xmlns="http://www.w3.org/2000/svg">
<path d="M20.9155 12.5816L15 15.9032V9.25992L20.9155 12.5816Z" fill="white" stroke="white" stroke-width="1.5" stroke-linecap="round" stroke-linejoin="round"/>
<path d="M31.7513 2.97854L31.7505 2.97777C31.187 2.41081 30.4289 2.06448 29.1361 1.85558C27.813 1.64177 26.074 1.59162 23.6229 1.52359L31.7513 2.97854ZM31.7513 2.97854C32.3104 3.53978 32.6405 4.28794 32.8169 5.56649M31.7513 2.97854L32.8169 5.56649M23.6222 22.8905L23.623 22.8905C26.0748 22.8233 27.814 22.7731 29.137 22.5594C30.4291 22.3506 31.1877 22.0044 31.7522 21.438L23.6222 22.8905ZM23.6222 22.8905C21.3327 22.9551 18.9976 22.9997 17.0016 22.9997C14.7939 22.9933 12.5863 22.9569 10.3796 22.8906L10.377 22.8905M23.6222 22.8905L10.377 22.8905M10.377 22.8905C7.9259 22.8233 6.18677 22.7736 4.86347 22.56C3.57089 22.3513 2.81219 22.005 2.24775 21.438C1.68895 20.8758 1.35912 20.1272 1.18295 18.8488C1.00222 17.5373 1 15.8157 1 13.3837V13.3821V11.032M10.377 22.8905L1 11.032M1 11.032C1 8.59923 1.00222 6.87718 1.18295 5.56574M1 11.032L1.18295 5.56574M1.18295 5.56574C1.35913 4.28732 1.68892 3.53942 2.24737 2.97816L1.18295 5.56574ZM17 1.41602C15.0036 1.41602 12.6679 1.4606 10.3773 1.52358L17 1.41602ZM17 1.41602C18.9946 1.41602 21.3304 1.4606 23.6227 1.52358L17 1.41602ZM32.8169 5.56649C32.9978 6.87807 33 8.60005 33 11.032M32.8169 5.56649L33 11.032M33 11.032V13.3821M33 11.032V13.3821M33 13.3821C33 15.8157 32.9978 17.5377 32.8171 18.8492M33 13.3821L32.8171 18.8492M32.8171 18.8492C32.641 20.1269 32.3114 20.875 31.753 21.4372L32.8171 18.8492ZM2.24738 2.97815C2.81186 2.41085 3.57064 2.06449 4.86361 1.85558C6.18696 1.64177 7.92605 1.59162 10.3771 1.52359L2.24738 2.97815Z" stroke="white" stroke-width="2"/>
</svg>
