<svg width="53" height="36" viewBox="0 0 53 36" fill="none" xmlns="http://www.w3.org/2000/svg">
<path d="M34.2912 18.5321L22.2764 25.1117V11.9524L34.2912 18.5321Z" fill="#163E58" stroke="#163E58" stroke-width="1.5" stroke-linecap="round" stroke-linejoin="round"/>
<path d="M49.2005 4.06797L49.1992 4.06662C48.3856 3.24803 47.2811 2.73247 45.3337 2.41777C43.3333 2.0945 40.6976 2.01802 36.9519 1.91405L49.2005 4.06797ZM49.2005 4.06797C50.0061 4.87673 50.4975 5.96439 50.7629 7.88882C51.0364 9.87105 51.0403 12.4801 51.0403 16.197V19.7826C51.0403 23.5021 51.0364 26.1112 50.7632 28.0932C50.4981 30.017 50.0074 31.1049 49.2021 31.9152C48.3868 32.7333 47.2814 33.2486 45.335 33.5631C43.3347 33.8864 40.6988 33.9629 36.952 34.0656L36.9506 34.0656M49.2005 4.06797L36.9506 34.0656M36.9506 34.0656C33.4586 34.1642 29.8984 34.2321 26.856 34.2322C23.4899 34.2223 20.1241 34.1668 16.7596 34.0657L16.755 34.0656M36.9506 34.0656L16.755 34.0656M16.755 34.0656C13.0092 33.9629 10.3734 33.887 8.37266 33.564C6.42515 33.2496 5.31964 32.734 4.50455 31.9149C3.69958 31.1046 3.20887 30.0163 2.94377 28.0926C2.67064 26.1106 2.66675 23.502 2.66675 19.7851V19.7826V16.197M16.755 34.0656L2.66675 16.197M2.66675 16.197C2.66675 12.4788 2.67064 9.86969 2.94377 7.88764M2.66675 16.197L2.94377 7.88764M2.94377 7.88764C3.20895 5.9634 3.69981 4.87611 4.50455 4.0673L2.94377 7.88764ZM4.50457 4.06728C5.31968 3.2481 6.42523 2.73247 8.37291 2.41778C10.3737 2.0945 13.0094 2.01802 16.7552 1.91405L4.50457 4.06728ZM16.7556 1.91403C20.2493 1.81796 23.8106 1.75 26.8535 1.75C29.8938 1.75 33.4551 1.81796 36.9514 1.91403H16.7556Z" stroke="#163E58" stroke-width="3.5"/>
</svg>
